<mxfile host="app.diagrams.net" modified="2021-06-17T08:48:52.735Z" agent="5.0 (Windows NT 10.0; Win64; x64) AppleWebKit/537.36 (KHTML, like Gecko) Chrome/91.0.4472.106 Safari/537.36" etag="rY3i0ktCfUPUMtbarEOw" version="14.7.10" type="github">
  <diagram id="AKXKj6HSnDTJ0x1onoZ5" name="Page-1">
    <mxGraphModel dx="1635" dy="2035" grid="1" gridSize="10" guides="1" tooltips="1" connect="1" arrows="1" fold="1" page="1" pageScale="1" pageWidth="827" pageHeight="1169" math="0" shadow="0">
      <root>
        <mxCell id="0" />
        <mxCell id="1" parent="0" />
        <mxCell id="wNI0iCQW7VWHlqg-LpIO-41" style="edgeStyle=orthogonalEdgeStyle;rounded=0;orthogonalLoop=1;jettySize=auto;html=1;exitX=1;exitY=0.5;exitDx=0;exitDy=0;entryX=0;entryY=0.5;entryDx=0;entryDy=0;" edge="1" parent="1" source="wNI0iCQW7VWHlqg-LpIO-3" target="wNI0iCQW7VWHlqg-LpIO-9">
          <mxGeometry relative="1" as="geometry" />
        </mxCell>
        <mxCell id="wNI0iCQW7VWHlqg-LpIO-3" value="" style="rounded=0;whiteSpace=wrap;html=1;" vertex="1" parent="1">
          <mxGeometry x="40" y="40" width="360" height="240" as="geometry" />
        </mxCell>
        <mxCell id="wNI0iCQW7VWHlqg-LpIO-4" value="&lt;font style=&quot;font-size: 18px&quot;&gt;logo&lt;/font&gt;" style="ellipse;whiteSpace=wrap;html=1;aspect=fixed;" vertex="1" parent="1">
          <mxGeometry x="190" y="50" width="60" height="60" as="geometry" />
        </mxCell>
        <mxCell id="wNI0iCQW7VWHlqg-LpIO-6" value="&lt;font style=&quot;font-size: 18px&quot;&gt;Music App (header)&lt;/font&gt;" style="rounded=1;whiteSpace=wrap;html=1;" vertex="1" parent="1">
          <mxGeometry x="137.5" y="120" width="165" height="40" as="geometry" />
        </mxCell>
        <mxCell id="wNI0iCQW7VWHlqg-LpIO-7" value="NAV&lt;br&gt;(Genres)" style="rounded=1;whiteSpace=wrap;html=1;" vertex="1" parent="1">
          <mxGeometry x="50" y="60" width="60" height="130" as="geometry" />
        </mxCell>
        <mxCell id="wNI0iCQW7VWHlqg-LpIO-56" style="edgeStyle=orthogonalEdgeStyle;rounded=0;orthogonalLoop=1;jettySize=auto;html=1;exitX=1;exitY=0.5;exitDx=0;exitDy=0;entryX=0;entryY=0.5;entryDx=0;entryDy=0;" edge="1" parent="1" source="wNI0iCQW7VWHlqg-LpIO-9" target="wNI0iCQW7VWHlqg-LpIO-42">
          <mxGeometry relative="1" as="geometry" />
        </mxCell>
        <mxCell id="wNI0iCQW7VWHlqg-LpIO-9" value="" style="rounded=0;whiteSpace=wrap;html=1;" vertex="1" parent="1">
          <mxGeometry x="580" y="40" width="360" height="240" as="geometry" />
        </mxCell>
        <mxCell id="wNI0iCQW7VWHlqg-LpIO-34" style="edgeStyle=orthogonalEdgeStyle;rounded=0;orthogonalLoop=1;jettySize=auto;html=1;exitX=1;exitY=0.5;exitDx=0;exitDy=0;" edge="1" parent="1" source="wNI0iCQW7VWHlqg-LpIO-12" target="wNI0iCQW7VWHlqg-LpIO-24">
          <mxGeometry relative="1" as="geometry" />
        </mxCell>
        <mxCell id="wNI0iCQW7VWHlqg-LpIO-12" value="Music Audio" style="rounded=1;whiteSpace=wrap;html=1;" vertex="1" parent="1">
          <mxGeometry x="600" y="110" width="110" height="20" as="geometry" />
        </mxCell>
        <mxCell id="wNI0iCQW7VWHlqg-LpIO-13" value="&lt;font style=&quot;font-size: 18px&quot;&gt;Genre&lt;/font&gt;" style="rounded=1;whiteSpace=wrap;html=1;" vertex="1" parent="1">
          <mxGeometry x="600" y="50" width="130" height="30" as="geometry" />
        </mxCell>
        <mxCell id="wNI0iCQW7VWHlqg-LpIO-35" style="edgeStyle=orthogonalEdgeStyle;rounded=0;orthogonalLoop=1;jettySize=auto;html=1;exitX=1;exitY=0.5;exitDx=0;exitDy=0;" edge="1" parent="1" source="wNI0iCQW7VWHlqg-LpIO-14" target="wNI0iCQW7VWHlqg-LpIO-25">
          <mxGeometry relative="1" as="geometry" />
        </mxCell>
        <mxCell id="wNI0iCQW7VWHlqg-LpIO-14" value="Music Audio" style="rounded=1;whiteSpace=wrap;html=1;" vertex="1" parent="1">
          <mxGeometry x="600" y="140" width="110" height="20" as="geometry" />
        </mxCell>
        <mxCell id="wNI0iCQW7VWHlqg-LpIO-36" style="edgeStyle=orthogonalEdgeStyle;rounded=0;orthogonalLoop=1;jettySize=auto;html=1;exitX=1;exitY=0.5;exitDx=0;exitDy=0;entryX=0;entryY=0.5;entryDx=0;entryDy=0;" edge="1" parent="1" source="wNI0iCQW7VWHlqg-LpIO-15" target="wNI0iCQW7VWHlqg-LpIO-26">
          <mxGeometry relative="1" as="geometry" />
        </mxCell>
        <mxCell id="wNI0iCQW7VWHlqg-LpIO-15" value="Music Audio" style="rounded=1;whiteSpace=wrap;html=1;" vertex="1" parent="1">
          <mxGeometry x="600" y="170" width="110" height="20" as="geometry" />
        </mxCell>
        <mxCell id="wNI0iCQW7VWHlqg-LpIO-37" style="edgeStyle=orthogonalEdgeStyle;rounded=0;orthogonalLoop=1;jettySize=auto;html=1;exitX=1;exitY=0.5;exitDx=0;exitDy=0;" edge="1" parent="1" source="wNI0iCQW7VWHlqg-LpIO-16" target="wNI0iCQW7VWHlqg-LpIO-27">
          <mxGeometry relative="1" as="geometry" />
        </mxCell>
        <mxCell id="wNI0iCQW7VWHlqg-LpIO-16" value="Music Audio" style="rounded=1;whiteSpace=wrap;html=1;" vertex="1" parent="1">
          <mxGeometry x="600" y="200" width="110" height="20" as="geometry" />
        </mxCell>
        <mxCell id="wNI0iCQW7VWHlqg-LpIO-24" value="Lyrics (link/button)" style="rounded=0;whiteSpace=wrap;html=1;" vertex="1" parent="1">
          <mxGeometry x="750" y="110" width="120" height="20" as="geometry" />
        </mxCell>
        <mxCell id="wNI0iCQW7VWHlqg-LpIO-25" value="Lyrics (link/button)" style="rounded=0;whiteSpace=wrap;html=1;" vertex="1" parent="1">
          <mxGeometry x="750" y="140" width="120" height="20" as="geometry" />
        </mxCell>
        <mxCell id="wNI0iCQW7VWHlqg-LpIO-26" value="Lyrics (link/button)" style="rounded=0;whiteSpace=wrap;html=1;" vertex="1" parent="1">
          <mxGeometry x="750" y="170" width="120" height="20" as="geometry" />
        </mxCell>
        <mxCell id="wNI0iCQW7VWHlqg-LpIO-27" value="Lyrics (link/button)" style="rounded=0;whiteSpace=wrap;html=1;" vertex="1" parent="1">
          <mxGeometry x="750" y="200" width="120" height="20" as="geometry" />
        </mxCell>
        <mxCell id="wNI0iCQW7VWHlqg-LpIO-40" value="Click on genre" style="rounded=1;whiteSpace=wrap;html=1;" vertex="1" parent="1">
          <mxGeometry x="450" y="130" width="86" height="20" as="geometry" />
        </mxCell>
        <mxCell id="wNI0iCQW7VWHlqg-LpIO-42" value="" style="rounded=0;whiteSpace=wrap;html=1;" vertex="1" parent="1">
          <mxGeometry x="1080" y="40" width="360" height="240" as="geometry" />
        </mxCell>
        <mxCell id="wNI0iCQW7VWHlqg-LpIO-60" value="Lyrics can be pop up" style="shape=callout;whiteSpace=wrap;html=1;perimeter=calloutPerimeter;" vertex="1" parent="1">
          <mxGeometry x="810" y="-40" width="120" height="80" as="geometry" />
        </mxCell>
        <mxCell id="wNI0iCQW7VWHlqg-LpIO-61" value="&lt;font style=&quot;font-size: 18px&quot;&gt;Song&lt;/font&gt;" style="rounded=1;whiteSpace=wrap;html=1;" vertex="1" parent="1">
          <mxGeometry x="1215" y="50" width="90" height="30" as="geometry" />
        </mxCell>
        <mxCell id="wNI0iCQW7VWHlqg-LpIO-62" value="&lt;font style=&quot;font-size: 18px&quot;&gt;Lyrics&lt;/font&gt;" style="rounded=1;whiteSpace=wrap;html=1;" vertex="1" parent="1">
          <mxGeometry x="1195" y="90" width="130" height="170" as="geometry" />
        </mxCell>
        <mxCell id="wNI0iCQW7VWHlqg-LpIO-65" value="Click on lyrics" style="rounded=1;whiteSpace=wrap;html=1;" vertex="1" parent="1">
          <mxGeometry x="970" y="130" width="86" height="20" as="geometry" />
        </mxCell>
      </root>
    </mxGraphModel>
  </diagram>
</mxfile>
